<?xml version="1.0" standalone="no"?>
<!DOCTYPE svg PUBLIC "-//W3C//DTD SVG 20010904//EN"
 "http://www.w3.org/TR/2001/REC-SVG-20010904/DTD/svg10.dtd">
<svg version="1.0" xmlns="http://www.w3.org/2000/svg"
 width="191.000000pt" height="186.000000pt" viewBox="0 0 191.000000 186.000000"
 preserveAspectRatio="xMidYMid meet">

<g transform="translate(0.000000,186.000000) scale(0.100000,-0.100000)"
fill="#000000" stroke="none">
<path d="M0 930 l0 -930 955 0 955 0 0 930 0 930 -955 0 -955 0 0 -930z m1216
579 c73 -34 126 -90 163 -168 22 -47 26 -69 26 -141 -1 -86 -14 -129 -61 -200
-15 -25 -15 -28 10 -65 60 -87 71 -220 28 -318 -29 -65 -104 -142 -171 -174
-52 -26 -67 -28 -217 -33 l-161 -5 -54 -52 -54 -53 -112 0 -113 0 0 565 0 565
228 0 228 0 58 59 c56 56 60 59 100 54 22 -3 69 -18 102 -34z"/>
<path d="M1012 1260 l-59 -60 -112 0 -111 0 0 -110 0 -110 58 0 c57 0 59 1
112 55 l54 55 64 0 c80 0 125 20 147 67 30 62 2 126 -67 152 -25 9 -31 6 -86
-49z"/>
<path d="M897 805 c-56 -53 -61 -55 -113 -55 l-54 0 0 -112 0 -112 58 57 58
57 124 0 c105 0 130 3 156 19 63 38 70 128 13 175 -27 23 -39 26 -107 26 l-77
0 -58 -55z"/>
</g>
</svg>
